# xmcd
#
# Track frame offsets:
#	150
#	61627
#	90707
#	118784
#	144498
#	184181
#	208016
#	246028
#
# Disc length: 3692 seconds
#
# Revision: 0
# Processed by: cddbd v1.5.2PL0 Copyright (c) Steve Scherf et al.
# Submitted via: audiograbber 1.83.01
#
DISCID=6c0e6a08
DTITLE=Grateful Dead - 94-07-19 Deer Creek Music Centre, Noblesville IN
DYEAR=1900
DGENRE=
TTITLE0=Shakedown Street
TTITLE1=Walkin' Blues
TTITLE2=Jack-A-Roe
TTITLE3=Big River
TTITLE4=Maggie's Farm
TTITLE5=Broken Arrow
TTITLE6=Tennessee Jed
TTITLE7=Easy Answers
EXTD=
EXTT0=
EXTT1=
EXTT2=
EXTT3=
EXTT4=
EXTT5=
EXTT6=
EXTT7=
PLAYORDER=
